#!OML:ASF F:\VICON\USERDATA\INSTALL\rory3\rory3.ASF
:FULLY-SPECIFIED
:DEGREES
1898
root 10.3493 17.409 -2.61175 188.294 147.928 182.599
lowerback 11.141 -0.97854 -3.32843
upperback 1.13548 -1.5075 3.30559
thorax -4.88375 -0.638049 5.59262
lowerneck -15.0575 -3.67553 -11.2491
upperneck 37.2635 -2.37552 2.54045
head 16.0309 -2.08958 2.70523
rclavicle 3.18055e-015 1.27222e-014
rhumerus -26.0674 8.73388 -80.2131
rradius 45.145
rwrist 26.8156
rhand -32.3474 6.55495
rfingers 7.12502
rthumb -5.58419 -23.3515
lclavicle 3.18055e-015 1.27222e-014
lhumerus -27.4192 -8.10053 94.7042
lradius 45.1289
lwrist -6.83135
lhand -20.936 24.0678
lfingers 7.12502
lthumb 5.43612 53.9781
rfemur -21.1125 6.93745 -0.619899
rtibia 29.2237
rfoot -10.8281 -4.97531
rtoes -14.5777
lfemur -18.4118 -13.181 -8.65849
ltibia 27.5206
lfoot -17.2923 -10.533
ltoes -26.9227
1899
root 10.4563 17.4255 -2.66482 188.01 148.536 182.532
lowerback 11.1085 -0.962092 -3.3359
upperback 1.12559 -1.48673 3.30252
thorax -4.87847 -0.627907 5.58969
lowerneck -14.8104 -3.90672 -11.4471
upperneck 37.1774 -2.82798 2.84682
head 15.9808 -2.26581 2.79105
rclavicle 6.08281e-014 1.35174e-014
rhumerus -25.8093 7.68318 -79.7021
rradius 44.934
rwrist 25.9263
rhand -31.8886 6.91732
rfingers 7.12502
rthumb -5.1412 -23.0003
lclavicle 6.08281e-014 1.35174e-014
lhumerus -27.3032 -7.93599 94.5595
lradius 44.2264
lwrist -6.94995
lhand -20.7977 24.1308
lfingers 7.12502
lthumb 5.56971 54.0376
rfemur -20.7235 7.34247 -0.943617
rtibia 28.5145
rfoot -10.4197 -5.29084
rtoes -11.2744
lfemur -17.8829 -12.4678 -9.18749
ltibia 27.4627
lfoot -17.3257 -11.0089
ltoes -26.3095
1900
root 10.5657 17.447 -2.71346 187.748 149.218 182.333
lowerback 10.9061 -0.961916 -3.26381
upperback 1.1044 -1.4732 3.33149
thorax -4.79069 -0.62495 5.57039
lowerneck -14.6228 -4.06728 -11.3352
upperneck 37.1535 -3.13354 2.81157
head 15.9492 -2.38582 2.70067
rclavicle 1.98785e-014 -6.36111e-015
rhumerus -25.6571 6.77248 -79.3386
rradius 44.8233
rwrist 25.323
rhand -32.1181 6.4123
rfingers 7.12502
rthumb -5.36279 -23.4998
lclavicle 1.98785e-014 -6.36111e-015
lhumerus -27.2819 -7.62099 94.3505
lradius 43.3614
lwrist -7.18555
lhand -20.5672 24.3459
lfingers 7.12502
lthumb 5.7922 54.2467
rfemur -20.4939 7.69757 -1.09216
rtibia 27.8779
rfoot -9.82767 -5.86499
rtoes -9.86729
lfemur -17.3553 -11.7326 -9.58132
ltibia 27.3201
lfoot -17.0302 -11.384
ltoes -25.1145
1901
root 10.6748 17.4689 -2.764 187.667 150.244 182.239
lowerback 10.4747 -0.862476 -3.38652
upperback 1.12546 -1.34706 3.36989
thorax -4.53923 -0.56824 5.64818
lowerneck -14.5178 -4.26202 -11.3936
upperneck 37.1393 -3.44521 2.82978
head 15.9511 -2.52556 2.66175
rclavicle -3.97569e-015 7.15625e-015
rhumerus -25.3828 5.78951 -78.9205
rradius 44.6377
rwrist 24.9393
rhand -32.6237 6.34569
rfingers 7.12502
rthumb -5.85092 -23.5535
lclavicle -3.97569e-015 7.15625e-015
lhumerus -27.1234 -7.19163 94.1389
lradius 42.4771
lwrist -7.36234
lhand -20.0745 24.1488
lfingers 7.12502
lthumb 6.26788 54.036
rfemur -20.6492 8.03748 -1.39917
rtibia 27.272
rfoot -9.47082 -6.37693
rtoes -4.71872
lfemur -16.8123 -10.9051 -10.093
ltibia 27.1088
lfoot -16.4909 -11.4093
ltoes -22.7945
1902
root 10.7868 17.4902 -2.81864 187.582 151.438 182.128
lowerback 10.1612 -0.742021 -3.40043
upperback 1.07842 -1.18391 3.36669
thorax -4.43345 -0.490035 5.62149
lowerneck -14.4034 -4.39026 -11.4452
upperneck 37.2179 -3.6728 2.88498
head 15.9897 -2.6267 2.65522
rclavicle 8.56762e-014 -7.15625e-015
rhumerus -25.2166 4.91506 -78.5251
rradius 44.4513
rwrist 24.5017
rhand -32.6376 6.53773
rfingers 7.12502
rthumb -5.86431 -23.3611
lclavicle 8.56762e-014 -7.15625e-015
lhumerus -27.172 -6.73397 93.878
lradius 41.6661
lwrist -7.5043
lhand -19.6393 24.081
lfingers 7.12502
lthumb 6.68804 53.9554
rfemur -20.9548 8.31422 -1.69845
rtibia 26.7242
rfoot -8.45836 -6.8221
rtoes -5.4055
lfemur -16.2011 -10.1293 -10.6111
ltibia 26.8206
lfoot -16.1882 -11.2463
ltoes -20.2448
1903
root 10.8963 17.5152 -2.87675 187.378 152.616 182.001
lowerback 10.0663 -0.646348 -3.39633
upperback 1.05665 -1.05522 3.36724
thorax -4.41912 -0.426725 5.6002
lowerneck -14.3728 -4.4689 -11.4101
upperneck 37.3244 -3.81463 2.8663
head 16.0492 -2.69057 2.61628
rclavicle 1.61016e-014 1.90833e-014
rhumerus -24.9272 4.33339 -78.2119
rradius 44.1576
rwrist 23.9125
rhand -32.4412 6.61013
rfingers 7.12502
rthumb -5.67468 -23.2939
lclavicle 1.61016e-014 1.90833e-014
lhumerus -27.2371 -6.17742 93.5626
lradius 40.7555
lwrist -7.83195
lhand -19.3793 24.2726
lfingers 7.12502
lthumb 6.93901 54.1389
rfemur -21.1353 8.46535 -1.86275
rtibia 26.2122
rfoot -7.33437 -7.36814
rtoes -6.14846
lfemur -15.5357 -9.47169 -11.1066
ltibia 26.5185
lfoot -16.108 -10.9882
ltoes -18.8756
1904
root 11.0017 17.5417 -2.93899 187.195 153.825 181.911
lowerback 10.0306 -0.536526 -3.44089
upperback 1.0283 -0.914129 3.36874
thorax -4.4454 -0.355054 5.60826
lowerneck -14.3225 -4.55546 -11.368
upperneck 37.4238 -3.97407 2.8475
head 16.1019 -2.76064 2.57279
rclavicle 9.93923e-015 -1.27222e-014
rhumerus -24.7117 3.6794 -77.9375
rradius 43.9791
rwrist 23.5667
rhand -32.3782 6.73803
rfingers 7.12502
rthumb -5.61388 -23.1676
lclavicle 9.93923e-015 -1.27222e-014
lhumerus -27.3246 -5.56598 93.2416
lradius 39.7752
lwrist -8.23299
lhand -19.2316 23.837
lfingers 7.12502
lthumb 7.08156 53.6986
rfemur -21.3637 8.63025 -2.02099
rtibia 25.7421
rfoot -6.6156 -8.17958
rtoes -2.7537
lfemur -14.9252 -8.85636 -11.6241
ltibia 26.2111
lfoot -16.0138 -10.5387
ltoes -18.1653
1905
root 11.1056 17.5663 -3.00028 187.255 155.073 181.933
lowerback 9.77778 -0.449178 -3.59594
upperback 0.999287 -0.812705 3.33151
thorax -4.34539 -0.305216 5.63811
lowerneck -14.3485 -4.64395 -11.2279
upperneck 37.4685 -4.16774 2.84296
head 16.1433 -2.8282 2.51
rclavicle 6.67916e-014 1.03368e-014
rhumerus -24.4741 3.18223 -77.7465
rradius 43.9327
rwrist 23.1735
rhand -32.1806 6.38377
rfingers 7.12502
rthumb -5.4231 -23.5268
lclavicle 6.67916e-014 1.03368e-014
lhumerus -27.3433 -4.97277 92.8188
lradius 38.8813
lwrist -8.42118
lhand -19.1368 23.0564
lfingers 7.12502
lthumb 7.17313 52.9148
rfemur -21.8362 8.71919 -2.30109
rtibia 25.3298
rfoot -6.04239 -9.09561
rtoes -0.130902
lfemur -14.5628 -8.32083 -12.2348
ltibia 25.9419
lfoot -15.9549 -9.8629
ltoes -18.243
1906
root 11.2065 17.5896 -3.05962 187.317 156.332 181.93
lowerback 9.44181 -0.382589 -3.74955
upperback 1.073 -0.73436 3.32389
thorax -4.08831 -0.273216 5.69838
lowerneck -14.581 -4.77866 -11.3388
upperneck 37.499 -4.37045 2.95637
head 16.2443 -2.91814 2.53739
rclavicle -7.05686e-014 -8.74653e-015
rhumerus -23.9767 2.96455 -77.5679
rradius 43.7763
rwrist 22.686
rhand -32.0498 5.79607
rfingers 7.12502
rthumb -5.29684 -24.1177
lclavicle -7.05686e-014 -8.74653e-015
lhumerus -27.1946 -4.4126 92.4121
lradius 38.1174
lwrist -8.32187
lhand -18.9777 23.2641
lfingers 7.12502
lthumb 7.32672 53.1173
rfemur -22.3692 8.61691 -2.45892
rtibia 24.9987
rfoot -5.1304 -9.94984
rtoes -0.95538
lfemur -14.2354 -7.89682 -12.7995
ltibia 25.6867
lfoot -15.8848 -9.11397
ltoes -18.4737
1907
root 11.3031 17.6073 -3.11521 187.22 157.594 181.825
lowerback 9.24166 -0.264441 -3.7639
upperback 1.13538 -0.574863 3.32211
thorax -3.93123 -0.199957 5.67931
lowerneck -14.698 -4.94221 -11.5641
upperneck 37.514 -4.61665 3.13355
head 16.3222 -3.03292 2.60591
rclavicle 1.70955e-014 -1.27222e-014
rhumerus -23.4692 2.60405 -77.3885
rradius 43.413
rwrist 22.4451
rhand -32.1901 5.52528
rfingers 7.12502
rthumb -5.43225 -24.3851
lclavicle 1.70955e-014 -1.27222e-014
lhumerus -27.2 -4.20264 92.1236
lradius 37.4828
lwrist -7.89962
lhand -18.6913 24.4191
lfingers 7.12502
lthumb 7.60314 54.2624
rfemur -22.8386 8.40747 -2.37281
rtibia 24.7512
rfoot -4.07384 -10.8268
rtoes -2.56038
lfemur -13.7743 -7.44087 -13.259
ltibia 25.4442
lfoot -15.9162 -8.38828
ltoes -18.9485
1908
root 11.3947 17.6247 -3.16787 187.085 158.865 181.825
lowerback 9.1574 -0.114264 -3.87547
upperback 1.16413 -0.38663 3.28711
thorax -3.87729 -0.107507 5.68109
lowerneck -14.7066 -5.06348 -11.6841
upperneck 37.5589 -4.87606 3.38352
head 16.3876 -3.12906 2.68863
rclavicle -6.95746e-015 1.11319e-014
rhumerus -23.0843 2.11284 -77.1863
rradius 43.1011
rwrist 22.6145
rhand -32.1356 5.34225
rfingers 7.12502
rthumb -5.37964 -24.5695
lclavicle -6.95746e-015 1.11319e-014
lhumerus -27.3439 -4.06839 91.8528
lradius 36.834
lwrist -7.37532
lhand -18.301 24.9808
lfingers 7.12502
lthumb 7.97988 54.8102
rfemur -23.2646 8.27876 -2.32091
rtibia 24.6229
rfoot -4.11954 -12.196
rtoes 3.2494
lfemur -13.213 -7.09095 -13.8216
ltibia 25.1655
lfoot -15.8588 -7.48488
ltoes -19.104
1909
root 11.483 17.6473 -3.21667 187.005 160.122 181.89
lowerback 9.04348 -0.0487834 -4.15654
upperback 1.11706 -0.326194 3.26717
thorax -3.86909 -0.073084 5.8128
lowerneck -14.5919 -5.07772 -11.6696
upperneck 37.645 -4.99587 3.5297
head 16.4196 -3.16516 2.7309
rclavicle -3.55825e-014 -2.14687e-014
rhumerus -22.8136 1.92399 -77.1023
rradius 42.9471
rwrist 22.6273
rhand -32.1863 5.67333
rfingers 7.12502
rthumb -5.42863 -24.2371
lclavicle -3.55825e-014 -2.14687e-014
lhumerus -27.7706 -3.70895 91.4858
lradius 36.3279
lwrist -6.86781
lhand -17.6996 25.3625
lfingers 7.12502
lthumb 8.5602 55.169
rfemur -23.7336 7.88664 -2.19834
rtibia 24.617
rfoot -3.76156 -13.4413
rtoes 5.29389
lfemur -12.6978 -6.72168 -14.4325
ltibia 24.8403
lfoot -15.7098 -6.59757
ltoes -19.1244
